<?xml version="1.0" encoding="UTF-8"?><svg id="Layer_3" xmlns="http://www.w3.org/2000/svg" viewBox="0 0 50 50"><defs><style>.cls-1{fill:#fff;}</style></defs><path class="cls-1" d="M50,25C50,11.22,38.78,0,25,0S0,11.22,0,25s11.22,25,25,25,25-11.22,25-25Zm-25,23c-12.68,0-23-10.32-23-23S12.32,2,25,2s23,10.32,23,23-10.32,23-23,23Z"/><path class="cls-1" d="M23,33c-4.41,0-8-3.59-8-8,0-2.03,.77-3.96,2.15-5.44l3.15,3.15c.19,.19,.44,.29,.71,.29,1,0,1-.42,1-2.72V11c0-.55-.45-1-1-1H10c-.4,0-.77,.24-.92,.62-.15,.37-.07,.8,.22,1.09l2.19,2.19c-2.86,2.97-4.48,6.96-4.48,11.1,0,8.82,7.18,16,16,16,.55,0,1-.45,1-1v-6c0-.55-.45-1-1-1Zm-1,5.97c-7.25-.51-13-6.58-13-13.97,0-3.93,1.67-7.7,4.58-10.35,.2-.18,.32-.44,.33-.72,0-.27-.1-.54-.29-.73l-1.2-1.2h7.59v7.59l-2.13-2.13c-.37-.37-.96-.39-1.36-.05-2.23,1.91-3.51,4.68-3.51,7.6,0,5.18,3.95,9.45,9,9.95v4.01Z"/><path class="cls-1" d="M27,10c-.55,0-1,.45-1,1v6c0,.55,.45,1,1,1,4.41,0,8,3.59,8,8,0,2.03-.77,3.96-2.15,5.44l-3.15-3.15c-.19-.19-.44-.29-.71-.29-1,0-1,.42-1,2.72v9.28c0,.55,.45,1,1,1h11c.4,0,.77-.24,.92-.62,.15-.37,.07-.8-.22-1.09l-2.19-2.19c2.86-2.97,4.49-6.96,4.49-11.1,0-8.82-7.18-16-16-16Zm9.38,27.8l1.2,1.2h-7.59v-7.59l2.13,2.13c.37,.37,.96,.39,1.36,.05,2.23-1.91,3.51-4.68,3.51-7.6,0-5.18-3.95-9.45-9-9.95v-4.01c7.26,.51,13,6.58,13,13.97,0,3.93-1.67,7.7-4.58,10.35-.2,.18-.32,.44-.33,.72,0,.27,.1,.54,.29,.73Z"/></svg>